# xmcd
#
# Track frame offsets:
#	150
#	25340
#	52341
#	76947
#	104637
#	126310
#	144923
#	161979
#	185292
#	205747
#	226998
#	250165
#	273692
#	311882
#	337425
#
# Disc length: 4717
#
# Revision: 2
# Processed by: cddbd v1.5.1PL0 Copyright (c) Steve Scherf et al.
# Submitted via: audiograbber 1.81.02
# Normalized: r1:DSETVAR1
#
DISCID=ea126b0f
DTITLE=Various Artist - The Best In Chill [CD1)
DYEAR=2003
DGENRE=Ambient
TTITLE0=Ante Rem - Caloumet
TTITLE1=Flam - Monsoon
TTITLE2=Riccardo Eberspacher - Osiride
TTITLE3=Pochill - Violet Theme
TTITLE4=Mystic Diversions - Qawsalla
TTITLE5=D.N.A. - Tango Minimal
TTITLE6=In-Grid - Tu Es Foutu
TTITLE7=Ethnosonique - Love, Peace and Drums
TTITLE8=Polarys - Shooting Star
TTITLE9=Illiano - Spring
TTITLE10=Ann Lee - So Deep
TTITLE11=Sarma - Muel
TTITLE12=Mono Club - What A Fight
TTITLE13=Auburn - Truly Heavenly
TTITLE14=Brain Inc. - Running Man
EXTD=
EXTT0=
EXTT1=
EXTT2=
EXTT3=
EXTT4=
EXTT5=
EXTT6=
EXTT7=
EXTT8=
EXTT9=
EXTT10=
EXTT11=
EXTT12=
EXTT13=
EXTT14=
PLAYORDER=
